<?xml version="1.0" encoding="UTF-8" standalone="no"?>
<svg
   xmlns:dc="http://purl.org/dc/elements/1.1/"
   xmlns:cc="http://creativecommons.org/ns#"
   xmlns:rdf="http://www.w3.org/1999/02/22-rdf-syntax-ns#"
   xmlns:svg="http://www.w3.org/2000/svg"
   xmlns="http://www.w3.org/2000/svg"
   xmlns:sodipodi="http://sodipodi.sourceforge.net/DTD/sodipodi-0.dtd"
   xmlns:inkscape="http://www.inkscape.org/namespaces/inkscape"
   sodipodi:docname="logo.svg"
   inkscape:version="1.0 (4035a4f, 2020-05-01)"
   id="svg8"
   version="1.1"
   viewBox="0 0 77.210304 13.917039"
   height="13.917039mm"
   width="77.210304mm">
  <defs
     id="defs2" />
  <sodipodi:namedview
     inkscape:window-maximized="0"
     inkscape:window-y="23"
     inkscape:window-x="0"
     inkscape:window-height="810"
     inkscape:window-width="1440"
     fit-margin-bottom="0"
     fit-margin-right="0"
     fit-margin-left="0"
     fit-margin-top="0"
     showgrid="false"
     inkscape:document-rotation="0"
     inkscape:current-layer="layer1"
     inkscape:document-units="mm"
     inkscape:cy="41.477175"
     inkscape:cx="152.84353"
     inkscape:zoom="1.2917819"
     inkscape:pageshadow="2"
     inkscape:pageopacity="0.0"
     borderopacity="1.0"
     bordercolor="#666666"
     pagecolor="#ffffff"
     id="base" />
  <metadata
     id="metadata5">
    <rdf:RDF>
      <cc:Work
         rdf:about="">
        <dc:format>image/svg+xml</dc:format>
        <dc:type
           rdf:resource="http://purl.org/dc/dcmitype/StillImage" />
        <dc:title></dc:title>
      </cc:Work>
    </rdf:RDF>
  </metadata>
  <g
     transform="translate(-26.072797,-52.886453)"
     id="layer1"
     inkscape:groupmode="layer"
     inkscape:label="Layer 1">
    <g
       style="font-style:normal;font-weight:normal;font-size:10.5833px;line-height:1.25;font-family:sans-serif;fill:#c73d2a;fill-opacity:1;stroke:none;stroke-width:0.264583"
       id="text835"
       aria-label="Trance um Desejo">
      <path
         id="path855"
         style="font-style:normal;font-variant:normal;font-weight:normal;font-stretch:normal;font-family:Pacifico;-inkscape-font-specification:Pacifico;fill:#c73d2a;fill-opacity:1;stroke-width:0.264583"
         d="m 34.602936,53.203952 q 0.328082,0.0635 0.486832,0.222249 0.169333,0.15875 0.169333,0.370416 0,0.349248 -0.201083,0.507998 -0.190499,0.158749 -0.613831,0.127 -0.952497,-0.07408 -1.492246,-0.09525 -0.529165,-0.03175 -1.396995,-0.04233 -0.391582,1.947327 -0.719665,3.915821 -0.116416,0.719664 -0.243415,1.672161 -0.127,0.941914 -0.169333,1.523995 -0.02117,0.306916 -0.253999,0.476249 -0.232833,0.158749 -0.560915,0.158749 -0.349249,0 -0.539749,-0.169333 -0.190499,-0.169333 -0.190499,-0.444498 0,-0.254 0.07408,-0.836081 0.08467,-0.592665 0.1905,-1.238246 0.116416,-0.645581 0.179916,-1.12183 0.116416,-0.804331 0.264582,-1.598078 0.148166,-0.793748 0.296332,-1.502829 0.03175,-0.158749 0.07408,-0.359832 0.04233,-0.211666 0.09525,-0.465665 -1.037163,0.03175 -1.629828,0.169333 -0.592665,0.137583 -0.846664,0.391582 -0.243416,0.243416 -0.243416,0.634998 0,0.359832 0.211666,0.687914 0.04233,0.07408 0.04233,0.15875 0,0.201083 -0.243415,0.380999 -0.232833,0.169332 -0.486832,0.169332 -0.179916,0 -0.296333,-0.105833 -0.211666,-0.179916 -0.349248,-0.507998 -0.137583,-0.338666 -0.137583,-0.761998 0,-0.89958 0.582081,-1.439328 0.592665,-0.550332 1.788578,-0.804331 1.206496,-0.253999 3.090323,-0.253999 1.164163,0 1.852078,0.04233 0.698497,0.04233 1.217079,0.137583 z" />
      <path
         id="path857"
         style="font-style:normal;font-variant:normal;font-weight:normal;font-stretch:normal;font-family:Pacifico;-inkscape-font-specification:Pacifico;fill:#c73d2a;fill-opacity:1;stroke-width:0.264583"
         d="m 34.031107,62.041007 q -0.402165,0 -0.571498,-0.423332 -0.158749,-0.423332 -0.158749,-1.354662 0,-1.375829 0.391582,-2.614075 0.09525,-0.306916 0.306915,-0.444499 0.22225,-0.148166 0.613832,-0.148166 0.211666,0 0.296332,0.05292 0.08467,0.05292 0.08467,0.201083 0,0.169333 -0.15875,0.761998 -0.105833,0.423332 -0.169333,0.740831 -0.0635,0.317499 -0.105833,0.783164 0.349249,-0.910164 0.783164,-1.481662 0.433916,-0.571498 0.846664,-0.814914 0.423332,-0.243416 0.772581,-0.243416 0.687915,0 0.687915,0.687914 0,0.137583 -0.09525,0.666748 -0.08467,0.423332 -0.08467,0.529165 0,0.370416 0.264582,0.370416 0.296333,0 0.761998,-0.465665 0.137583,-0.137583 0.285749,-0.137583 0.137583,0 0.211666,0.126999 0.08467,0.116417 0.08467,0.317499 0,0.391582 -0.211666,0.613832 -0.296332,0.306915 -0.698498,0.529165 -0.391582,0.211666 -0.83608,0.211666 -0.560915,0 -0.857247,-0.28575 -0.28575,-0.285749 -0.28575,-0.77258 0,-0.15875 0.03175,-0.317499 0.02117,-0.211666 0.02117,-0.285749 0,-0.169333 -0.116416,-0.169333 -0.15875,0 -0.423332,0.359832 -0.254,0.349249 -0.507999,0.93133 -0.253999,0.582082 -0.412748,1.227663 -0.116417,0.497415 -0.275166,0.677331 -0.148166,0.169333 -0.476249,0.169333 z" />
      <path
         id="path859"
         style="font-style:normal;font-variant:normal;font-weight:normal;font-stretch:normal;font-family:Pacifico;-inkscape-font-specification:Pacifico;fill:#c73d2a;fill-opacity:1;stroke-width:0.264583"
         d="m 39.397667,62.041007 q -0.656164,0 -1.047746,-0.476248 -0.391582,-0.476249 -0.391582,-1.24883 0,-0.846664 0.391582,-1.598078 0.391582,-0.761998 1.037163,-1.21708 0.656165,-0.465665 1.386412,-0.465665 0.232833,0 0.306916,0.09525 0.08467,0.08467 0.137583,0.317499 0.222249,-0.04233 0.465665,-0.04233 0.518582,0 0.518582,0.370415 0,0.22225 -0.15875,1.05833 -0.243416,1.21708 -0.243416,1.693328 0,0.15875 0.07408,0.253999 0.08467,0.09525 0.211666,0.09525 0.201083,0 0.486832,-0.253999 0.285749,-0.264583 0.772581,-0.846664 0.127,-0.148166 0.285749,-0.148166 0.137583,0 0.211666,0.126999 0.08467,0.127 0.08467,0.349249 0,0.423332 -0.201083,0.656165 -0.433915,0.539748 -0.920747,0.910164 -0.486832,0.370415 -0.941914,0.370415 -0.349249,0 -0.645581,-0.232833 -0.285749,-0.243415 -0.433915,-0.656164 -0.550332,0.888997 -1.386413,0.888997 z m 0.380999,-1.068913 q 0.232833,0 0.444499,-0.275166 0.211666,-0.275166 0.306915,-0.730248 l 0.391582,-1.947327 q -0.444498,0.01058 -0.825497,0.338666 -0.370415,0.317499 -0.592665,0.846664 -0.222249,0.529165 -0.222249,1.121829 0,0.328083 0.127,0.486832 0.137582,0.15875 0.370415,0.15875 z" />
      <path
         id="path861"
         style="font-style:normal;font-variant:normal;font-weight:normal;font-stretch:normal;font-family:Pacifico;-inkscape-font-specification:Pacifico;fill:#c73d2a;fill-opacity:1;stroke-width:0.264583"
         d="m 43.828928,62.041007 q -0.402166,0 -0.571498,-0.423332 -0.15875,-0.423332 -0.15875,-1.354662 0,-1.375829 0.391582,-2.614075 0.09525,-0.306916 0.306916,-0.444499 0.222249,-0.148166 0.613831,-0.148166 0.211666,0 0.296333,0.05292 0.08467,0.05292 0.08467,0.201083 0,0.169333 -0.158749,0.761998 -0.105833,0.423332 -0.169333,0.740831 -0.0635,0.317499 -0.105833,0.783164 0.349249,-0.910164 0.783164,-1.481662 0.433915,-0.571498 0.846664,-0.814914 0.423332,-0.243416 0.772581,-0.243416 0.687914,0 0.687914,0.687914 0,0.412749 -0.232832,1.492246 -0.201083,0.920747 -0.201083,1.217079 0,0.423332 0.306916,0.423332 0.211666,0 0.497415,-0.253999 0.296332,-0.264583 0.783164,-0.846664 0.127,-0.148166 0.285749,-0.148166 0.137583,0 0.211666,0.126999 0.08467,0.127 0.08467,0.349249 0,0.423332 -0.201083,0.656165 -0.455082,0.560915 -0.984247,0.920747 -0.518582,0.359832 -1.18533,0.359832 -0.539748,0 -0.814914,-0.306916 -0.275165,-0.317499 -0.275165,-0.910163 0,-0.296333 0.148166,-1.05833 0.137583,-0.666748 0.137583,-0.920747 0,-0.169333 -0.116417,-0.169333 -0.137583,0 -0.391582,0.359832 -0.243416,0.349249 -0.507998,0.93133 -0.253999,0.582082 -0.412749,1.227663 -0.116416,0.497415 -0.275166,0.677331 -0.148166,0.169333 -0.476248,0.169333 z" />
      <path
         id="path863"
         style="font-style:normal;font-variant:normal;font-weight:normal;font-stretch:normal;font-family:Pacifico;-inkscape-font-specification:Pacifico;fill:#c73d2a;fill-opacity:1;stroke-width:0.264583"
         d="m 50.349233,62.041007 q -1.037164,0 -1.619245,-0.582081 -0.571498,-0.592665 -0.571498,-1.555746 0,-0.857247 0.338665,-1.502828 0.338666,-0.645581 0.878414,-0.99483 0.539749,-0.349249 1.132413,-0.349249 0.582082,0 0.899581,0.349249 0.328082,0.338665 0.328082,0.878414 0,0.444498 -0.201083,0.751414 -0.190499,0.306916 -0.507998,0.306916 -0.201083,0 -0.328082,-0.09525 -0.116417,-0.09525 -0.116417,-0.264583 0,-0.07408 0.02117,-0.169332 0.02117,-0.09525 0.03175,-0.137583 0.05292,-0.15875 0.05292,-0.296333 0,-0.137583 -0.07408,-0.211666 -0.0635,-0.07408 -0.190499,-0.07408 -0.243416,0 -0.455082,0.22225 -0.211666,0.211666 -0.338666,0.582081 -0.126999,0.370416 -0.126999,0.814914 0,1.227663 1.068913,1.227663 0.433915,0 0.93133,-0.285749 0.507999,-0.296333 0.994831,-0.878414 0.126999,-0.148166 0.285749,-0.148166 0.137583,0 0.211666,0.126999 0.08467,0.127 0.08467,0.349249 0,0.402166 -0.201083,0.656165 -0.497415,0.613831 -1.195912,0.952497 -0.687915,0.328082 -1.333496,0.328082 z" />
      <path
         id="path865"
         style="font-style:normal;font-variant:normal;font-weight:normal;font-stretch:normal;font-family:Pacifico;-inkscape-font-specification:Pacifico;fill:#c73d2a;fill-opacity:1;stroke-width:0.264583"
         d="m 56.002699,59.945514 q 0.137583,0 0.211666,0.126999 0.08467,0.127 0.08467,0.349249 0,0.380999 -0.179916,0.656165 -0.296332,0.455082 -0.783164,0.709081 -0.476248,0.253999 -1.142996,0.253999 -1.015997,0 -1.576912,-0.603248 -0.560915,-0.613831 -0.560915,-1.650995 0,-0.730247 0.306916,-1.354662 0.306915,-0.634998 0.846664,-1.005414 0.550331,-0.370415 1.238246,-0.370415 0.613831,0 0.984247,0.370415 0.370415,0.359833 0.370415,0.984247 0,0.730248 -0.529165,1.259413 -0.518581,0.518582 -1.777994,0.825497 0.253999,0.486832 0.857247,0.486832 0.433915,0 0.709081,-0.201083 0.285749,-0.201082 0.656165,-0.677331 0.126999,-0.158749 0.285749,-0.158749 z m -1.735661,-1.852078 q -0.391582,0 -0.666748,0.455082 -0.264583,0.455082 -0.264583,1.100663 v 0.02117 q 0.624415,-0.148166 0.984247,-0.444499 0.359832,-0.296332 0.359832,-0.687914 0,-0.201083 -0.116416,-0.317499 -0.105833,-0.127 -0.296332,-0.127 z" />
      <path
         id="path867"
         style="font-style:normal;font-variant:normal;font-weight:normal;font-stretch:normal;font-family:Pacifico;-inkscape-font-specification:Pacifico;fill:#c73d2a;fill-opacity:1;stroke-width:0.264583"
         d="m 60.445371,62.041007 q -0.476249,0 -0.783164,-0.433915 -0.296333,-0.444499 -0.296333,-1.100663 0,-0.793748 0.105833,-1.449912 0.105833,-0.666748 0.349249,-1.407579 0.105833,-0.317499 0.296332,-0.455082 0.1905,-0.137583 0.603249,-0.137583 0.232832,0 0.317499,0.07408 0.09525,0.07408 0.09525,0.222249 0,0.08467 -0.116416,0.571498 -0.105833,0.391583 -0.169333,0.709082 -0.211666,1.111246 -0.211666,1.481661 0,0.22225 0.05292,0.317499 0.05292,0.08467 0.169332,0.08467 0.15875,0 0.391583,-0.317499 0.243415,-0.317499 0.507998,-0.96308 0.275166,-0.645582 0.529165,-1.587495 0.08467,-0.317499 0.253999,-0.455082 0.179916,-0.137583 0.529165,-0.137583 0.243416,0 0.338666,0.0635 0.09525,0.05292 0.09525,0.211666 0,0.264582 -0.264582,1.449912 -0.296333,1.354662 -0.296333,1.672161 0,0.201083 0.08467,0.317499 0.08467,0.105833 0.222249,0.105833 0.211666,0 0.497415,-0.253999 0.296333,-0.264583 0.783164,-0.846664 0.127,-0.148166 0.28575,-0.148166 0.137582,0 0.211666,0.126999 0.08467,0.127 0.08467,0.349249 0,0.423332 -0.201083,0.656165 -0.455082,0.560915 -0.984247,0.920747 -0.518581,0.359832 -1.185329,0.359832 -0.507999,0 -0.751414,-0.391582 -0.232833,-0.391582 -0.232833,-1.100663 -0.179916,0.719664 -0.539748,1.111246 -0.359833,0.380999 -0.772581,0.380999 z" />
      <path
         id="path869"
         style="font-style:normal;font-variant:normal;font-weight:normal;font-stretch:normal;font-family:Pacifico;-inkscape-font-specification:Pacifico;fill:#c73d2a;fill-opacity:1;stroke-width:0.264583"
         d="m 65.016199,62.041007 q -0.402165,0 -0.571498,-0.423332 -0.15875,-0.423332 -0.15875,-1.354662 0,-1.375829 0.391582,-2.614075 0.09525,-0.306916 0.306916,-0.444499 0.222249,-0.148166 0.613831,-0.148166 0.211666,0 0.296333,0.05292 0.08467,0.05292 0.08467,0.201083 0,0.169333 -0.158749,0.761998 -0.105833,0.423332 -0.169333,0.740831 -0.0635,0.306915 -0.105833,0.77258 0.285749,-0.825497 0.677331,-1.396995 0.402166,-0.571498 0.814914,-0.846664 0.423332,-0.285749 0.793748,-0.285749 0.370415,0 0.518581,0.169333 0.15875,0.169332 0.15875,0.518581 0,0.338666 -0.201083,1.227663 -0.08467,0.380999 -0.116416,0.571498 0.349249,-0.888997 0.772581,-1.449912 0.433915,-0.560915 0.846664,-0.793747 0.412748,-0.243416 0.761997,-0.243416 0.338666,0 0.507999,0.179916 0.179916,0.169333 0.179916,0.507998 0,0.275166 -0.116417,1.037164 -0.105833,0.645581 -0.169332,1.227662 -0.0635,0.571499 -0.0635,1.28058 0,0.402165 -0.169333,0.582081 -0.158749,0.169333 -0.529165,0.169333 -0.349249,0 -0.507998,-0.179916 -0.15875,-0.179916 -0.15875,-0.539748 0,-0.423332 0.148166,-1.396996 0.127,-0.846664 0.127,-1.079496 0,-0.169333 -0.116416,-0.169333 -0.137583,0 -0.391582,0.359832 -0.254,0.349249 -0.507999,0.93133 -0.253999,0.582082 -0.412748,1.227663 -0.116417,0.507998 -0.275166,0.677331 -0.148166,0.169333 -0.486832,0.169333 -0.349249,0 -0.529165,-0.328082 -0.169333,-0.338666 -0.169333,-0.814914 0,-0.402166 0.105833,-1.164163 0.08467,-0.677331 0.08467,-0.888997 0,-0.169333 -0.116417,-0.169333 -0.158749,0 -0.402165,0.380999 -0.243416,0.380998 -0.476249,0.973663 -0.222249,0.592665 -0.359832,1.164163 -0.116416,0.497415 -0.275166,0.677331 -0.148166,0.169333 -0.476248,0.169333 z" />
      <path
         id="path871"
         style="font-style:normal;font-variant:normal;font-weight:normal;font-stretch:normal;font-family:Pacifico;-inkscape-font-specification:Pacifico;fill:#c73d2a;fill-opacity:1;stroke-width:0.264583"
         d="m 77.579069,62.041007 q -0.613832,0 -1.386413,-0.105833 -0.423332,-0.05292 -0.582081,-0.222249 -0.15875,-0.169333 -0.137583,-0.550332 0.07408,-1.047747 0.349249,-2.582325 0.275166,-1.545162 0.666748,-2.973907 0.07408,-0.264583 0.296332,-0.370416 0.222249,-0.105833 0.582082,-0.105833 0.645581,0 0.645581,0.359833 0,0.148166 -0.0635,0.338665 -0.275166,0.846664 -0.550332,2.27541 -0.275165,1.418162 -0.391582,2.709324 0.317499,0.03175 0.719665,0.03175 1.852077,0 2.762241,-1.12183 0.920747,-1.121829 0.920747,-2.995073 0,-1.259413 -0.719664,-1.947328 -0.719665,-0.687914 -2.031994,-0.687914 -0.846664,0 -1.682745,0.264582 -0.825497,0.264583 -1.492245,0.698498 -0.137583,0.09525 -0.296332,0.09525 -0.179916,0 -0.285749,-0.148166 -0.105833,-0.15875 -0.105833,-0.380999 0,-0.253999 0.08467,-0.412749 0.08467,-0.169333 0.285749,-0.306915 0.730248,-0.497415 1.714495,-0.751415 0.984247,-0.264582 1.89441,-0.264582 1.291163,0 2.233077,0.455082 0.941913,0.444498 1.449912,1.312329 0.507998,0.86783 0.507998,2.095493 0,1.598078 -0.634998,2.793991 -0.634998,1.18533 -1.852077,1.841494 -1.21708,0.656165 -2.899824,0.656165 z" />
      <path
         id="path873"
         style="font-style:normal;font-variant:normal;font-weight:normal;font-stretch:normal;font-family:Pacifico;-inkscape-font-specification:Pacifico;fill:#c73d2a;fill-opacity:1;stroke-width:0.264583"
         d="m 88.394539,59.628015 q 0.137583,0 0.211666,0.126999 0.08467,0.127 0.08467,0.349249 0,0.423332 -0.201083,0.656165 -0.391582,0.476248 -1.111246,0.878414 -0.709081,0.402165 -1.523995,0.402165 -1.111247,0 -1.725078,-0.603248 -0.613832,-0.603248 -0.613832,-1.650995 0,-0.730247 0.306916,-1.354662 0.306916,-0.634998 0.846664,-1.005414 0.550332,-0.370415 1.238246,-0.370415 0.613831,0 0.984247,0.370415 0.370415,0.359833 0.370415,0.984247 0,0.730248 -0.529165,1.259413 -0.518581,0.518582 -1.767411,0.825497 0.264583,0.486832 1.005414,0.486832 0.476248,0 1.079496,-0.328082 0.613832,-0.338666 1.05833,-0.878414 0.127,-0.148166 0.285749,-0.148166 z m -2.666991,-1.534579 q -0.391582,0 -0.666748,0.455082 -0.264582,0.455082 -0.264582,1.100663 v 0.02117 q 0.624414,-0.148166 0.984246,-0.444499 0.359833,-0.296332 0.359833,-0.687914 0,-0.201083 -0.116417,-0.317499 -0.105833,-0.127 -0.296332,-0.127 z" />
      <path
         id="path875"
         style="font-style:normal;font-variant:normal;font-weight:normal;font-stretch:normal;font-family:Pacifico;-inkscape-font-specification:Pacifico;fill:#c73d2a;fill-opacity:1;stroke-width:0.264583"
         d="m 89.797655,62.27384 q -0.550331,0 -0.846664,-0.254 -0.285749,-0.253999 -0.285749,-0.571498 0,-0.275166 0.201083,-0.476248 0.201083,-0.201083 0.592665,-0.201083 0.137583,0 0.317499,0.03175 0.190499,0.02117 0.285749,0.03175 -0.01058,-0.275166 -0.127,-0.518582 -0.105833,-0.243416 -0.275166,-0.465665 -0.169332,-0.232833 -0.317499,-0.402165 -0.328082,0.624414 -0.656164,1.037163 -0.317499,0.412749 -0.698498,0.783164 -0.190499,0.1905 -0.402165,0.1905 -0.169333,0 -0.275166,-0.116417 -0.105833,-0.126999 -0.105833,-0.306915 0,-0.211666 0.148166,-0.391583 l 0.137583,-0.169332 q 0.582081,-0.719665 0.878414,-1.18533 0.179916,-0.306916 0.423332,-0.814914 0.243416,-0.518582 0.476248,-1.068913 0.201083,-0.465665 0.836081,-0.465665 0.296332,0 0.412749,0.05292 0.116416,0.05292 0.116416,0.169333 0,0.0635 -0.04233,0.201083 -0.04233,0.137582 -0.116417,0.275165 -0.190499,0.380999 -0.190499,0.645582 0,0.158749 0.105833,0.349249 0.116416,0.190499 0.349249,0.476248 0.338666,0.444499 0.507998,0.761998 0.179916,0.306915 0.179916,0.677331 0,0.105833 -0.02117,0.296332 0.518582,-0.201083 1.217079,-1.068913 0.127,-0.148166 0.285749,-0.148166 0.137583,0 0.211666,0.126999 0.08467,0.127 0.08467,0.349249 0,0.402166 -0.201083,0.656165 -0.529165,0.656164 -1.015997,0.89958 -0.476248,0.232833 -1.185329,0.253999 -0.423332,0.359833 -1.005414,0.359833 z" />
      <path
         id="path877"
         style="font-style:normal;font-variant:normal;font-weight:normal;font-stretch:normal;font-family:Pacifico;-inkscape-font-specification:Pacifico;fill:#c73d2a;fill-opacity:1;stroke-width:0.264583"
         d="m 97.076153,59.628015 q 0.137583,0 0.211666,0.126999 0.08467,0.127 0.08467,0.349249 0,0.423332 -0.201083,0.656165 -0.391582,0.476248 -1.111246,0.878414 -0.709081,0.402165 -1.523996,0.402165 -1.111246,0 -1.725077,-0.603248 -0.613832,-0.603248 -0.613832,-1.650995 0,-0.730247 0.306916,-1.354662 0.306916,-0.634998 0.846664,-1.005414 0.550332,-0.370415 1.238246,-0.370415 0.613831,0 0.984247,0.370415 0.370415,0.359833 0.370415,0.984247 0,0.730248 -0.529165,1.259413 -0.518581,0.518582 -1.767411,0.825497 0.264583,0.486832 1.005414,0.486832 0.476248,0 1.079496,-0.328082 0.613832,-0.338666 1.05833,-0.878414 0.127,-0.148166 0.285749,-0.148166 z m -2.666991,-1.534579 q -0.391582,0 -0.666748,0.455082 -0.264582,0.455082 -0.264582,1.100663 v 0.02117 q 0.624414,-0.148166 0.984246,-0.444499 0.359833,-0.296332 0.359833,-0.687914 0,-0.201083 -0.116417,-0.317499 -0.105833,-0.127 -0.296332,-0.127 z" />
      <path
         id="path879"
         style="font-style:normal;font-variant:normal;font-weight:normal;font-stretch:normal;font-family:Pacifico;-inkscape-font-specification:Pacifico;fill:#c73d2a;fill-opacity:1;stroke-width:0.264583"
         d="m 97.643185,56.357775 q -0.444499,0 -0.666748,-0.201083 -0.222249,-0.211666 -0.222249,-0.582081 0,-0.370416 0.285749,-0.613831 0.296332,-0.254 0.730247,-0.254 0.391582,0 0.634998,0.1905 0.243416,0.190499 0.243416,0.539748 0,0.423332 -0.275166,0.677331 -0.275165,0.243416 -0.730247,0.243416 z m 1.904994,3.291406 q 0.137583,0 0.211666,0.137583 0.08467,0.127 0.08467,0.328082 0,0.243416 -0.07408,0.380999 -0.07408,0.137583 -0.232833,0.243416 -0.740831,0.486832 -1.979077,1.344079 -0.412748,2.201327 -1.068913,3.460739 -0.656165,1.259413 -1.672161,1.259413 -0.550332,0 -0.878414,-0.338666 -0.338666,-0.328082 -0.338666,-0.86783 0,-0.751415 0.582082,-1.608662 0.582081,-0.846664 2.190743,-2.095493 l 0.07408,-0.539748 q 0.148166,-1.015997 0.232832,-2.000244 0.0635,-0.571498 0.201083,-1.703911 0.04233,-0.306916 0.232833,-0.444499 0.190499,-0.148166 0.582081,-0.148166 0.317499,0 0.412749,0.09525 0.105833,0.09525 0.105833,0.264582 0,0.486832 -0.349249,2.688158 l -0.105833,0.730248 q 0.846664,-0.634998 1.545162,-1.100663 0.137583,-0.08467 0.243416,-0.08467 z m -4.614319,6.127731 q 0.275166,0 0.603248,-0.624415 0.328082,-0.624415 0.613831,-2.010827 -0.80433,0.687915 -1.153579,1.238246 -0.359832,0.560915 -0.359832,0.984247 0,0.412749 0.296332,0.412749 z" />
      <path
         id="path881"
         style="font-style:normal;font-variant:normal;font-weight:normal;font-stretch:normal;font-family:Pacifico;-inkscape-font-specification:Pacifico;fill:#c73d2a;fill-opacity:1;stroke-width:0.264583"
         d="m 100.98652,62.041007 q -0.62441,0 -1.068912,-0.306916 -0.433915,-0.317499 -0.656165,-0.825497 -0.222249,-0.507998 -0.222249,-1.09008 0,-0.804331 0.296332,-1.428745 0.306916,-0.634998 0.825494,-0.984247 0.51859,-0.359832 1.16417,-0.359832 0.62441,0 1.06891,0.317499 0.4445,0.306915 0.66675,0.814914 0.22225,0.507998 0.22225,1.09008 0,0.80433 -0.30692,1.439328 -0.30691,0.624415 -0.83608,0.984247 -0.51858,0.349249 -1.15358,0.349249 z m 0.11642,-1.142996 q 0.35983,0 0.60325,-0.391582 0.25399,-0.391583 0.25399,-1.142997 0,-0.582081 -0.21166,-0.878414 -0.21167,-0.296332 -0.508,-0.296332 -0.381,0 -0.635,0.391582 -0.24341,0.380999 -0.24341,1.142996 0,0.603248 0.21166,0.888998 0.21167,0.285749 0.52917,0.285749 z" />
    </g>
  </g>
</svg>
