<?xml version="1.0" encoding="UTF-8" standalone="no"?>
<svg
   xmlns:dc="http://purl.org/dc/elements/1.1/"
   xmlns:cc="http://creativecommons.org/ns#"
   xmlns:rdf="http://www.w3.org/1999/02/22-rdf-syntax-ns#"
   xmlns:svg="http://www.w3.org/2000/svg"
   xmlns="http://www.w3.org/2000/svg"
   xmlns:sodipodi="http://sodipodi.sourceforge.net/DTD/sodipodi-0.dtd"
   xmlns:inkscape="http://www.inkscape.org/namespaces/inkscape"
   inkscape:version="1.0 (4035a4f, 2020-05-01)"
   sodipodi:docname="email.svg"
   id="svg835"
   version="1.1"
   fill="none"
   viewBox="0 0 21 17"
   height="17"
   width="21">
  <metadata
     id="metadata841">
    <rdf:RDF>
      <cc:Work
         rdf:about="">
        <dc:format>image/svg+xml</dc:format>
        <dc:type
           rdf:resource="http://purl.org/dc/dcmitype/StillImage" />
      </cc:Work>
    </rdf:RDF>
  </metadata>
  <defs
     id="defs839" />
  <sodipodi:namedview
     inkscape:current-layer="svg835"
     inkscape:window-maximized="1"
     inkscape:window-y="23"
     inkscape:window-x="0"
     inkscape:cy="15.587817"
     inkscape:cx="1.4342403"
     inkscape:zoom="14.432198"
     showgrid="false"
     id="namedview837"
     inkscape:window-height="810"
     inkscape:window-width="1440"
     inkscape:pageshadow="2"
     inkscape:pageopacity="0"
     guidetolerance="10"
     gridtolerance="10"
     objecttolerance="10"
     borderopacity="1"
     bordercolor="#666666"
     pagecolor="#ffffff" />
  <path
     style="fill:#1a2f34;fill-opacity:1"
     id="path833"
     fill="#0496FE"
     d="M10.7911 10.7626C9.79054 10.7626 8.79001 10.4399 7.95449 9.79498L4.97199 7.49702C4.57014 7.18741 4.48877 6.6023 4.79016 6.18949C5.09154 5.77669 5.66113 5.6931 6.06298 6.0027L9.0464 8.30114C10.0737 9.09499 11.507 9.09499 12.5335 8.30207L15.5183 6.0027C15.9197 5.6931 16.4897 5.77716 16.7911 6.18949C17.0925 6.6023 17.0106 7.18741 16.6093 7.49702L13.6258 9.79545C12.7912 10.4399 11.7912 10.7626 10.7911 10.7626ZM20.6096 10.579V5.67349C20.6096 2.58354 18.1626 0.0698242 15.1546 0.0698242H6.42665C3.41869 0.0698242 0.97168 2.58354 0.97168 5.67349V10.579C0.97168 13.669 3.41869 16.1827 6.42665 16.1827H15.1546C18.1626 16.1827 20.6096 13.669 20.6096 10.579ZM15.1546 1.93771C17.1598 1.93771 18.7912 3.61368 18.7912 5.67349V10.579C18.7912 12.6388 17.1598 14.3148 15.1546 14.3148H6.42665C4.42149 14.3148 2.79 12.6388 2.79 10.579V5.67349C2.79 3.61368 4.42149 1.93771 6.42665 1.93771H15.1546Z" />
</svg>
