<?xml version="1.0" encoding="UTF-8" standalone="no"?>
<svg
   xmlns:dc="http://purl.org/dc/elements/1.1/"
   xmlns:cc="http://creativecommons.org/ns#"
   xmlns:rdf="http://www.w3.org/1999/02/22-rdf-syntax-ns#"
   xmlns:svg="http://www.w3.org/2000/svg"
   xmlns="http://www.w3.org/2000/svg"
   xmlns:sodipodi="http://sodipodi.sourceforge.net/DTD/sodipodi-0.dtd"
   xmlns:inkscape="http://www.inkscape.org/namespaces/inkscape"
   inkscape:version="1.0 (4035a4f, 2020-05-01)"
   style="fill:none"
   sodipodi:docname="facebook.svg"
   id="svg14"
   version="1.1"
   viewBox="0 0 23.052971 23.05295"
   height="23.05295"
   width="23.052971">
  <metadata
     id="metadata20">
    <rdf:RDF>
      <cc:Work
         rdf:about="">
        <dc:format>image/svg+xml</dc:format>
        <dc:type
           rdf:resource="http://purl.org/dc/dcmitype/StillImage" />
        <dc:title />
      </cc:Work>
    </rdf:RDF>
  </metadata>
  <defs
     id="defs18" />
  <sodipodi:namedview
     inkscape:document-rotation="0"
     inkscape:current-layer="svg14"
     inkscape:window-maximized="1"
     inkscape:window-y="23"
     inkscape:window-x="0"
     inkscape:cy="11.28"
     inkscape:cx="64.39917"
     inkscape:zoom="3.6923077"
     fit-margin-bottom="0"
     fit-margin-right="0"
     fit-margin-left="0"
     fit-margin-top="0"
     showgrid="false"
     id="namedview16"
     inkscape:window-height="810"
     inkscape:window-width="1440"
     inkscape:pageshadow="2"
     inkscape:pageopacity="0"
     guidetolerance="10"
     gridtolerance="10"
     objecttolerance="10"
     borderopacity="1"
     bordercolor="#666666"
     pagecolor="#ffffff" />
  <path
     style="fill:#1a2f34;fill-opacity:1"
     inkscape:connector-curvature="0"
     id="path4"
     d="m 14.08797,20.491549 h 6.4036 V 2.561439 H 2.56144 v 17.93011 h 8.96503 v -6.4036 H 8.96504 v -2.5615 h 2.56143 v -2.11315 c 0,-1.71617 0.1793,-2.33091 0.5123,-2.95847 0.333,-0.61474 0.8325,-1.12703 1.46,-1.44721 0.4867,-0.25615 1.1014,-0.42264 2.1644,-0.48668 0.4227,-0.02561 0.9734,0.01281 1.6394,0.10246 v 2.43337 h -0.6532 c -1.1783,0 -1.6649,0.05123 -1.9467,0.20492 -0.1665,0.08965 -0.3074,0.23053 -0.397,0.39702 -0.1665,0.28176 -0.2177,0.57632 -0.2177,1.74178 v 2.12596 h 3.2018 l -0.6404,2.5615 h -2.5614 z M 1.28072,0 h 20.49155 c 0.7044,0 1.2807,0.576324 1.2807,1.280719 v 20.49153 c 0,0.7044 -0.5763,1.2807 -1.2807,1.2807 H 1.28072 C 0.57632,23.052949 0,22.476649 0,21.772249 V 1.280719 C 0,0.576324 0.57632,0 1.28072,0 Z" />
</svg>
