<?xml version="1.0" encoding="UTF-8" standalone="no"?>
<svg
   xmlns:dc="http://purl.org/dc/elements/1.1/"
   xmlns:cc="http://creativecommons.org/ns#"
   xmlns:rdf="http://www.w3.org/1999/02/22-rdf-syntax-ns#"
   xmlns:svg="http://www.w3.org/2000/svg"
   xmlns="http://www.w3.org/2000/svg"
   xmlns:sodipodi="http://sodipodi.sourceforge.net/DTD/sodipodi-0.dtd"
   xmlns:inkscape="http://www.inkscape.org/namespaces/inkscape"
   inkscape:version="1.0 (4035a4f, 2020-05-01)"
   style="fill:none"
   sodipodi:docname="instagram.svg"
   id="svg14"
   version="1.1"
   viewBox="0 0 23.0529 23.05295"
   height="23.05295"
   width="23.0529">
  <metadata
     id="metadata20">
    <rdf:RDF>
      <cc:Work
         rdf:about="">
        <dc:format>image/svg+xml</dc:format>
        <dc:type
           rdf:resource="http://purl.org/dc/dcmitype/StillImage" />
        <dc:title />
      </cc:Work>
    </rdf:RDF>
  </metadata>
  <defs
     id="defs18" />
  <sodipodi:namedview
     inkscape:document-rotation="0"
     fit-margin-bottom="0"
     fit-margin-right="0"
     fit-margin-left="0"
     fit-margin-top="0"
     inkscape:current-layer="svg14"
     inkscape:window-maximized="1"
     inkscape:window-y="23"
     inkscape:window-x="0"
     inkscape:cy="10.56"
     inkscape:cx="32.955437"
     inkscape:zoom="3.6923077"
     showgrid="false"
     id="namedview16"
     inkscape:window-height="810"
     inkscape:window-width="1440"
     inkscape:pageshadow="2"
     inkscape:pageopacity="0"
     guidetolerance="10"
     gridtolerance="10"
     objecttolerance="10"
     borderopacity="1"
     bordercolor="#666666"
     pagecolor="#ffffff" />
  <path
     style="fill:#1a2f34;fill-opacity:1"
     inkscape:connector-curvature="0"
     id="path2"
     d="m 11.5264,8.068539 c -0.9171,0 -1.7966,0.36432 -2.4451,1.01281 -0.6485,0.64849 -1.0128,1.528 -1.0128,2.4451 0,0.9171 0.3643,1.7967 1.0128,2.4452 0.6485,0.6485 1.528,1.0128 2.4451,1.0128 0.9171,0 1.7967,-0.3643 2.4452,-1.0128 0.6485,-0.6485 1.0128,-1.5281 1.0128,-2.4452 0,-0.9171 -0.3643,-1.79661 -1.0128,-2.4451 -0.6485,-0.64849 -1.5281,-1.01281 -2.4452,-1.01281 z m 0,-2.3053 c 1.5285,0 2.9944,0.6072 4.0753,1.68802 1.0808,1.08082 1.688,2.54669 1.688,4.07519 0,1.5285 -0.6072,2.9944 -1.688,4.0753 -1.0809,1.0808 -2.5468,1.688 -4.0753,1.688 -1.5285,0 -2.9944,-0.6072 -4.0752,-1.688 -1.0808,-1.0809 -1.688,-2.5468 -1.688,-4.0753 0,-1.5285 0.6072,-2.99437 1.688,-4.07519 1.0808,-1.08082 2.5467,-1.68802 4.0752,-1.68802 z m 7.4923,-0.28816 c 0,0.38213 -0.1518,0.7486 -0.422,1.01881 -0.2703,0.2702 -0.6367,0.422 -1.0189,0.422 -0.3821,0 -0.7486,-0.1518 -1.0188,-0.422 -0.2702,-0.27021 -0.422,-0.63668 -0.422,-1.01881 0,-0.38213 0.1518,-0.7486 0.422,-1.01881 0.2702,-0.2702 0.6367,-0.422 1.0188,-0.422 0.3822,0 0.7486,0.1518 1.0189,0.422 0.2702,0.27021 0.422,0.63668 0.422,1.01881 z m -7.4923,-3.16978 c -2.8516,0 -3.3173,0.00807 -4.644,0.06685 -0.9037,0.04265 -1.51,0.16368 -2.0724,0.38268 -0.5003,0.19365 -0.8611,0.42533 -1.2449,0.81031 -0.3608,0.34856 -0.6382,0.7741 -0.8115,1.24486 -0.219,0.5648 -0.34,1.16994 -0.3815,2.07247 -0.0599,1.27252 -0.0669,1.71744 -0.0669,4.64398 0,2.8517 0.0081,3.3174 0.0669,4.6441 0.0427,0.9025 0.1637,1.5099 0.3815,2.0713 0.196,0.5014 0.4265,0.8621 0.8092,1.2448 0.3884,0.3873 0.7492,0.619 1.2448,0.8103 0.5695,0.2202 1.1758,0.3424 2.0748,0.3839 1.2725,0.0599 1.7175,0.0668 4.644,0.0668 2.8517,0 3.3174,-0.008 4.6441,-0.0668 0.9013,-0.0427 1.5088,-0.1637 2.0713,-0.3816 0.4991,-0.1948 0.8621,-0.4264 1.2448,-0.8091 0.3885,-0.3885 0.6202,-0.7492 0.8115,-1.2449 0.219,-0.5682 0.3412,-1.1757 0.3827,-2.0747 0.0599,-1.2726 0.0668,-1.7175 0.0668,-4.6441 0,-2.85162 -0.008,-3.31729 -0.0668,-4.64398 -0.0427,-0.90138 -0.1637,-1.50997 -0.3827,-2.07247 -0.1737,-0.47028 -0.4506,-0.89565 -0.8103,-1.24486 -0.3484,-0.36095 -0.774,-0.63837 -1.2449,-0.81146 -0.5648,-0.21901 -1.1711,-0.34003 -2.0724,-0.38153 -1.2726,-0.05994 -1.7175,-0.06685 -4.6441,-0.06685 z M 11.5264,0 c 3.1318,0 3.5225,0.011526 4.7513,0.069159 1.2275,0.057632 2.0632,0.250125 2.7986,0.535981 0.7607,0.292769 1.4016,0.689289 2.0425,1.329009 0.5861,0.5762 1.0396,1.2732 1.329,2.04249 0.2847,0.73424 0.4783,1.57106 0.536,2.79863 0.0541,1.22872 0.0691,1.61947 0.0691,4.75118 0,3.1318 -0.0115,3.5225 -0.0691,4.7513 -0.0577,1.2275 -0.2513,2.0632 -0.536,2.7986 -0.2886,0.7697 -0.7422,1.4669 -1.329,2.0425 -0.5764,0.5859 -1.2733,1.0394 -2.0425,1.329 -0.7343,0.2847 -1.5711,0.4783 -2.7986,0.536 -1.2288,0.0541 -1.6195,0.0691 -4.7513,0.0691 -3.1317,0 -3.5225,-0.0115 -4.7512,-0.0691 -1.2276,-0.0577 -2.0632,-0.2513 -2.7986,-0.536 -0.7696,-0.2888 -1.4667,-0.7424 -2.0425,-1.329 -0.5862,-0.5761 -1.0398,-1.2732 -1.329,-2.0425 -0.2859,-0.7343 -0.4784,-1.5711 -0.536,-2.7986 C 0.0149,15.048949 0,14.658249 0,11.526449 0,8.394739 0.0115,8.003989 0.0691,6.775269 0.1267,5.546549 0.3192,4.712029 0.6051,3.976639 0.8935,3.206879 1.3472,2.509689 1.9341,1.934149 2.51,1.347709 3.2071,0.894139 3.9766,0.60514 4.712,0.319284 5.5465,0.126791 6.7752,0.069159 8.0039,0.014984 8.3947,0 11.5264,0 Z" />
</svg>
