<?xml version="1.0" encoding="UTF-8" standalone="no"?>
<svg
   xmlns:dc="http://purl.org/dc/elements/1.1/"
   xmlns:cc="http://creativecommons.org/ns#"
   xmlns:rdf="http://www.w3.org/1999/02/22-rdf-syntax-ns#"
   xmlns:svg="http://www.w3.org/2000/svg"
   xmlns="http://www.w3.org/2000/svg"
   xmlns:sodipodi="http://sodipodi.sourceforge.net/DTD/sodipodi-0.dtd"
   xmlns:inkscape="http://www.inkscape.org/namespaces/inkscape"
   inkscape:version="1.0 (4035a4f, 2020-05-01)"
   sodipodi:docname="redes.svg"
   id="svg845"
   version="1.1"
   fill="none"
   viewBox="0 0 130 24"
   height="24"
   width="130">
  <metadata
     id="metadata851">
    <rdf:RDF>
      <cc:Work
         rdf:about="">
        <dc:format>image/svg+xml</dc:format>
        <dc:type
           rdf:resource="http://purl.org/dc/dcmitype/StillImage" />
      </cc:Work>
    </rdf:RDF>
  </metadata>
  <defs
     id="defs849" />
  <sodipodi:namedview
     inkscape:current-layer="svg845"
     inkscape:window-maximized="1"
     inkscape:window-y="23"
     inkscape:window-x="0"
     inkscape:cy="32.651257"
     inkscape:cx="63.956532"
     inkscape:zoom="5.403053"
     showgrid="false"
     id="namedview847"
     inkscape:window-height="810"
     inkscape:window-width="1440"
     inkscape:pageshadow="2"
     inkscape:pageopacity="0"
     guidetolerance="10"
     gridtolerance="10"
     objecttolerance="10"
     borderopacity="1"
     bordercolor="#666666"
     pagecolor="#ffffff" />
  <path
     style="fill:#1a2f34;fill-opacity:1"
     id="path833"
     fill="#0496FE"
     d="M64.6368 8.29559C63.7197 8.29559 62.8402 8.65991 62.1917 9.3084C61.5432 9.95689 61.1789 10.8364 61.1789 11.7535C61.1789 12.6706 61.5432 13.5502 62.1917 14.1987C62.8402 14.8472 63.7197 15.2115 64.6368 15.2115C65.5539 15.2115 66.4335 14.8472 67.082 14.1987C67.7305 13.5502 68.0948 12.6706 68.0948 11.7535C68.0948 10.8364 67.7305 9.95689 67.082 9.3084C66.4335 8.65991 65.5539 8.29559 64.6368 8.29559ZM64.6368 5.99029C66.1653 5.99029 67.6312 6.59749 68.7121 7.67831C69.7929 8.75913 70.4001 10.225 70.4001 11.7535C70.4001 13.282 69.7929 14.7479 68.7121 15.8288C67.6312 16.9096 66.1653 17.5168 64.6368 17.5168C63.1083 17.5168 61.6424 16.9096 60.5616 15.8288C59.4808 14.7479 58.8736 13.282 58.8736 11.7535C58.8736 10.225 59.4808 8.75913 60.5616 7.67831C61.6424 6.59749 63.1083 5.99029 64.6368 5.99029ZM72.1291 5.70213C72.1291 6.08426 71.9773 6.45073 71.7071 6.72094C71.4368 6.99114 71.0704 7.14294 70.6882 7.14294C70.3061 7.14294 69.9396 6.99114 69.6694 6.72094C69.3992 6.45073 69.2474 6.08426 69.2474 5.70213C69.2474 5.32 69.3992 4.95353 69.6694 4.68332C69.9396 4.41312 70.3061 4.26132 70.6882 4.26132C71.0704 4.26132 71.4368 4.41312 71.7071 4.68332C71.9773 4.95353 72.1291 5.32 72.1291 5.70213ZM64.6368 2.53235C61.7852 2.53235 61.3195 2.54042 59.9928 2.5992C59.0891 2.64185 58.4828 2.76288 57.9204 2.98188C57.4201 3.17553 57.0593 3.40721 56.6755 3.79219C56.3147 4.14075 56.0373 4.56629 55.864 5.03705C55.645 5.60185 55.524 6.20699 55.4825 7.10952C55.4226 8.38204 55.4156 8.82696 55.4156 11.7535C55.4156 14.6052 55.4237 15.0709 55.4825 16.3976C55.5252 17.3001 55.6462 17.9075 55.864 18.4689C56.06 18.9703 56.2905 19.331 56.6732 19.7137C57.0616 20.101 57.4224 20.3327 57.918 20.524C58.4875 20.7442 59.0938 20.8664 59.9928 20.9079C61.2653 20.9678 61.7103 20.9747 64.6368 20.9747C67.4885 20.9747 67.9542 20.9667 69.2809 20.9079C70.1822 20.8652 70.7897 20.7442 71.3522 20.5263C71.8513 20.3315 72.2143 20.0999 72.597 19.7172C72.9855 19.3287 73.2172 18.968 73.4085 18.4723C73.6275 17.9041 73.7497 17.2966 73.7912 16.3976C73.8511 15.125 73.858 14.6801 73.858 11.7535C73.858 8.90188 73.85 8.43621 73.7912 7.10952C73.7485 6.20814 73.6275 5.59955 73.4085 5.03705C73.2348 4.56677 72.9579 4.1414 72.5982 3.79219C72.2498 3.43124 71.8242 3.15382 71.3533 2.98073C70.7885 2.76172 70.1822 2.6407 69.2809 2.5992C68.0083 2.53926 67.5634 2.53235 64.6368 2.53235ZM64.6368 0.227051C67.7686 0.227051 68.1593 0.238577 69.3881 0.29621C70.6156 0.353842 71.4513 0.546335 72.1867 0.832191C72.9474 1.12496 73.5883 1.52148 74.2292 2.1612C74.8153 2.7374 75.2688 3.4344 75.5582 4.20369C75.8429 4.93793 76.0365 5.77475 76.0942 7.00232C76.1483 8.23104 76.1633 8.62179 76.1633 11.7535C76.1633 14.8853 76.1518 15.276 76.0942 16.5048C76.0365 17.7323 75.8429 18.568 75.5582 19.3034C75.2696 20.0731 74.816 20.7703 74.2292 21.3459C73.6528 21.9318 72.9559 22.3853 72.1867 22.6749C71.4524 22.9596 70.6156 23.1532 69.3881 23.2109C68.1593 23.265 67.7686 23.28 64.6368 23.28C61.5051 23.28 61.1143 23.2685 59.8856 23.2109C58.658 23.1532 57.8224 22.9596 57.087 22.6749C56.3174 22.3861 55.6203 21.9325 55.0445 21.3459C54.4583 20.7698 54.0047 20.0727 53.7155 19.3034C53.4296 18.5691 53.2371 17.7323 53.1795 16.5048C53.1253 15.276 53.1104 14.8853 53.1104 11.7535C53.1104 8.62179 53.1219 8.23104 53.1795 7.00232C53.2371 5.7736 53.4296 4.93908 53.7155 4.20369C54.0039 3.43393 54.4576 2.73674 55.0445 2.1612C55.6204 1.57476 56.3175 1.12119 57.087 0.832191C57.8224 0.546335 58.6569 0.353842 59.8856 0.29621C61.1143 0.242035 61.5051 0.227051 64.6368 0.227051Z" />
  <path
     style="fill:#1a2f34;fill-opacity:1"
     id="path835"
     fill="#0496FE"
     d="M14.6888 20.7186H21.0924V2.78849H3.16227V20.7186H12.1273V14.315H9.56587V11.7535H12.1273V9.64035C12.1273 7.92418 12.3066 7.30944 12.6396 6.68188C12.9726 6.06714 13.4721 5.55485 14.0996 5.23467C14.5863 4.97852 15.201 4.81203 16.264 4.74799C16.6867 4.72238 17.2374 4.7608 17.9034 4.85045V7.28382H17.2502C16.0719 7.28382 15.5853 7.33505 15.3035 7.48874C15.137 7.57839 14.9961 7.71927 14.9065 7.88576C14.74 8.16752 14.6888 8.46208 14.6888 9.62754V11.7535H17.8906L17.2502 14.315H14.6888V20.7186ZM1.88155 0.227051H22.3731C23.0775 0.227051 23.6538 0.803375 23.6538 1.50777V21.9993C23.6538 22.7037 23.0775 23.28 22.3731 23.28H1.88155C1.17715 23.28 0.60083 22.7037 0.60083 21.9993V1.50777C0.60083 0.803375 1.17715 0.227051 1.88155 0.227051Z" />
  <path
     style="fill:#1a2f34;fill-opacity:1"
     id="path837"
     fill="#0496FE"
     d="M114.346 9.37997H111.204V18.7547H114.346V9.37997Z" />
  <path
     style="fill:#1a2f34;fill-opacity:1"
     id="path839"
     fill="#0496FE"
     d="M112.775 8.09927H112.758C111.767 8.09927 110.965 7.27962 110.982 6.30629C110.982 5.31588 111.802 4.51331 112.775 4.53039C113.748 4.54746 114.568 5.35003 114.551 6.32337C114.551 7.2967 113.765 8.09927 112.775 8.09927Z" />
  <path
     style="fill:#1a2f34;fill-opacity:1"
     id="path841"
     fill="#0496FE"
     d="M125.65 18.7547H122.508V13.7344C122.508 12.4707 122.047 11.6169 120.92 11.6169C120.203 11.6169 119.554 12.078 119.315 12.761C119.23 13.0001 119.196 13.2562 119.213 13.5124V18.7547H116.088C116.088 18.7547 116.122 10.2679 116.088 9.37997H119.23V10.7119C119.793 9.70442 120.886 9.10676 122.047 9.15798C124.114 9.15798 125.65 10.4899 125.65 13.3758V18.7547Z" />
  <path
     style="fill:#1a2f34;fill-opacity:1"
     id="path843"
     fill="#0496FE"
     d="M127.273 0.227234H109.582C108.113 0.210158 106.918 1.3884 106.901 2.87401V20.6501C106.918 22.1187 108.113 23.2969 109.582 23.2798H127.273C128.741 23.2969 129.937 22.1187 129.954 20.6501V2.87401C129.937 1.3884 128.741 0.210158 127.273 0.227234ZM127.648 20.6501C127.631 20.855 127.478 21.0087 127.273 20.9917H109.582C109.377 21.0087 109.206 20.855 109.206 20.6501V2.87401C109.223 2.6691 109.377 2.51542 109.582 2.53249H127.273C127.478 2.51542 127.648 2.6691 127.648 2.87401V20.6501Z" />
</svg>
