<?xml version="1.0" encoding="UTF-8" standalone="no"?>
<svg
   xmlns:dc="http://purl.org/dc/elements/1.1/"
   xmlns:cc="http://creativecommons.org/ns#"
   xmlns:rdf="http://www.w3.org/1999/02/22-rdf-syntax-ns#"
   xmlns:svg="http://www.w3.org/2000/svg"
   xmlns="http://www.w3.org/2000/svg"
   xmlns:sodipodi="http://sodipodi.sourceforge.net/DTD/sodipodi-0.dtd"
   xmlns:inkscape="http://www.inkscape.org/namespaces/inkscape"
   inkscape:version="1.0 (4035a4f, 2020-05-01)"
   sodipodi:docname="whatsapp.svg"
   id="svg835"
   version="1.1"
   fill="none"
   viewBox="0 0 18 19"
   height="19"
   width="18">
  <metadata
     id="metadata841">
    <rdf:RDF>
      <cc:Work
         rdf:about="">
        <dc:format>image/svg+xml</dc:format>
        <dc:type
           rdf:resource="http://purl.org/dc/dcmitype/StillImage" />
      </cc:Work>
    </rdf:RDF>
  </metadata>
  <defs
     id="defs839" />
  <sodipodi:namedview
     inkscape:current-layer="svg835"
     inkscape:window-maximized="1"
     inkscape:window-y="23"
     inkscape:window-x="0"
     inkscape:cy="22.388135"
     inkscape:cx="16.359969"
     inkscape:zoom="13.379129"
     showgrid="false"
     id="namedview837"
     inkscape:window-height="810"
     inkscape:window-width="1440"
     inkscape:pageshadow="2"
     inkscape:pageopacity="0"
     guidetolerance="10"
     gridtolerance="10"
     objecttolerance="10"
     borderopacity="1"
     bordercolor="#666666"
     pagecolor="#ffffff" />
  <path
     style="fill:#1a2f34;fill-opacity:1"
     id="path833"
     fill="#0496FE"
     d="M5.1502 15.5938L5.77411 15.9676C6.83996 16.6086 8.04446 16.9379 9.26629 16.9379C13.0964 16.9379 16.1987 13.7511 16.1987 9.81644C16.1987 5.8818 13.0964 2.69493 9.26629 2.69493C5.43616 2.69493 2.33392 5.8818 2.33392 9.81644C2.33392 11.0983 2.66321 12.3179 3.26979 13.395L3.63374 14.0359L3.07049 16.1724C3.07049 16.1813 5.1502 15.5938 5.1502 15.5938ZM0.60083 18.7183L1.77067 14.2941C1.00811 12.9321 0.60083 11.3921 0.60083 9.81644C0.60083 4.9026 4.48296 0.914551 9.26629 0.914551C14.0496 0.914551 17.9318 4.9026 17.9318 9.81644C17.9318 14.7303 14.0496 18.7183 9.26629 18.7183C7.73251 18.7183 6.23338 18.3088 4.90756 17.5166L0.60083 18.7183ZM6.13806 5.64145C6.25071 5.63255 6.37203 5.63255 6.48468 5.64145C6.52801 5.64145 6.58 5.65035 6.62333 5.65926C6.76197 5.67706 6.90929 5.75718 6.96128 5.8818C7.22124 6.48713 7.47254 7.09246 7.71517 7.69779C7.76717 7.83132 7.73251 8.00935 7.63719 8.17849C7.56786 8.27641 7.49854 8.39214 7.41188 8.49896C7.31656 8.62358 7.10859 8.86393 7.10859 8.86393C7.10859 8.86393 7.02194 8.97076 7.0566 9.10429C7.06526 9.1577 7.10859 9.22891 7.14325 9.28232L7.19525 9.37134C7.42055 9.75412 7.71517 10.1369 8.07912 10.5019C8.18311 10.6087 8.28709 10.7066 8.39108 10.8134C8.79836 11.1784 9.25763 11.4811 9.75156 11.7036H9.76022C9.83821 11.7392 9.87287 11.757 9.97686 11.8016C10.0289 11.8283 10.0895 11.8461 10.1415 11.8639C10.2628 11.8906 10.3841 11.8461 10.4621 11.7481C11.086 10.9648 11.1467 10.9203 11.1554 10.9203C11.242 10.8402 11.3633 10.7956 11.4847 10.8045C11.5366 10.8045 11.5886 10.8223 11.6406 10.8402C12.0999 11.0538 12.8538 11.3921 12.8538 11.3921L13.3564 11.6235C13.443 11.668 13.521 11.7659 13.521 11.8639C13.521 11.9262 13.5297 12.0241 13.5124 12.1932C13.4864 12.4247 13.417 12.7006 13.3477 12.8431C13.3044 12.941 13.2437 13.03 13.1657 13.1101C13.0791 13.2081 12.9838 13.2882 12.8798 13.3683C12.8451 13.395 12.8105 13.4217 12.7671 13.4484C12.6632 13.5196 12.5505 13.5819 12.4379 13.6442C12.2125 13.7689 11.9699 13.8401 11.7186 13.849C11.554 13.8579 11.398 13.8668 11.2334 13.8579C11.2247 13.8579 10.7394 13.7778 10.7394 13.7778C9.50893 13.4484 8.36508 12.8253 7.41188 11.9529C7.21258 11.7749 7.0306 11.5879 6.84863 11.3921C6.0774 10.5998 5.49682 9.75412 5.14153 8.95295C4.95089 8.56127 4.85557 8.13398 4.84691 7.69779C4.84691 7.15477 5.01155 6.62956 5.33217 6.20227C5.39283 6.12215 5.45349 6.03313 5.55747 5.93521C5.67013 5.82839 5.73945 5.77498 5.80877 5.73047C5.91276 5.67706 6.02541 5.65035 6.13806 5.64145Z" />
</svg>
