<?xml version="1.0" encoding="UTF-8" standalone="no"?>
<svg
   xmlns:dc="http://purl.org/dc/elements/1.1/"
   xmlns:cc="http://creativecommons.org/ns#"
   xmlns:rdf="http://www.w3.org/1999/02/22-rdf-syntax-ns#"
   xmlns:svg="http://www.w3.org/2000/svg"
   xmlns="http://www.w3.org/2000/svg"
   xmlns:sodipodi="http://sodipodi.sourceforge.net/DTD/sodipodi-0.dtd"
   xmlns:inkscape="http://www.inkscape.org/namespaces/inkscape"
   sodipodi:docname="saudacao.svg"
   inkscape:version="1.0 (4035a4f, 2020-05-01)"
   id="svg890"
   version="1.1"
   viewBox="0 0 108.92336 60.152233"
   height="60.152233mm"
   width="108.92336mm">
  <defs
     id="defs884" />
  <sodipodi:namedview
     fit-margin-bottom="0"
     fit-margin-right="0"
     fit-margin-left="0"
     fit-margin-top="0"
     inkscape:window-maximized="0"
     inkscape:window-y="23"
     inkscape:window-x="0"
     inkscape:window-height="810"
     inkscape:window-width="1440"
     showgrid="false"
     inkscape:document-rotation="0"
     inkscape:current-layer="layer1"
     inkscape:document-units="mm"
     inkscape:cy="102.66941"
     inkscape:cx="268.50517"
     inkscape:zoom="0.99095157"
     inkscape:pageshadow="2"
     inkscape:pageopacity="0.0"
     borderopacity="1.0"
     bordercolor="#666666"
     pagecolor="#ffffff"
     id="base" />
  <metadata
     id="metadata887">
    <rdf:RDF>
      <cc:Work
         rdf:about="">
        <dc:format>image/svg+xml</dc:format>
        <dc:type
           rdf:resource="http://purl.org/dc/dcmitype/StillImage" />
        <dc:title></dc:title>
      </cc:Work>
    </rdf:RDF>
  </metadata>
  <g
     transform="translate(16.130197,50.431638)"
     id="layer1"
     inkscape:groupmode="layer"
     inkscape:label="Layer 1">
    <g
       style="font-style:normal;font-weight:normal;font-size:24.72169999999999845px;line-height:1.25;font-family:sans-serif;fill:#ffffff;fill-opacity:1;stroke:none;stroke-width:0.618046"
       id="text1553-4"
       aria-label="Meninos">
      <path
         id="path862"
         style="font-style:normal;font-variant:normal;font-weight:normal;font-stretch:normal;font-family:'Plantin MT Pro';-inkscape-font-specification:'Plantin MT Pro';fill:#ffffff;stroke-width:0.618046"
         d="m 6.4278909,-7.6043805 q 0.074165,1.1866416 0.5933208,2.8924389 0.5438774,1.7057974 1.7799625,4.15324576 1.0630331,2.10134454 1.8046838,3.65881174 0.741651,1.5574671 1.038312,2.5710568 0.593321,-1.1866416 1.236085,-2.47217 0.667486,-1.3102502 1.260807,-2.57105691 0.618042,-1.26080674 1.137198,-2.42272669 0.543877,-1.1619199 0.914703,-2.0766228 0.346103,-0.8158162 0.469712,-1.4833021 0.14833,-0.6922076 0.14833,-1.1866416 0,-0.2224953 -0.02472,-0.494434 -0.02472,-0.2719387 -0.07417,-0.5685991 h 5.018506 v 0.9394246 q -0.988868,0.074165 -1.458581,0.494434 -0.469712,0.4202689 -0.469712,1.3102501 0,0.2719387 0.02472,0.5933209 0.02472,0.3213821 0.07417,0.6180425 l 1.236085,9.493133 q 0.173052,1.2855285 0.766373,1.8294059 0.618042,0.5191557 1.804684,0.6427642 V 9.2558193 H 16.242406 V 8.3163947 q 1.137198,0 1.656354,-0.5438774 0.519156,-0.5685991 0.519156,-1.5080238 0,-0.494434 -0.321382,-3.0902125 -0.321382,-2.62050031 -0.840538,-6.9962413 h -0.04944 q -0.939424,2.8182738 -3.213821,7.1692932 -1.137198,2.1755096 -1.75524,3.6093683 -0.593321,1.4338586 -0.766373,2.2991181 h -1.16192 Q 10.160868,8.3163947 9.4933818,6.7836493 8.8506176,5.2261821 7.6392542,2.8281771 6.4031692,0.40545048 5.6120748,-1.3003469 4.8457021,-3.0308659 4.4995983,-4.2175075 H 4.4501549 L 3.1893481,4.5586962 q -0.074165,0.4449906 -0.098887,0.8405378 -0.024722,0.3708255 -0.024722,0.5933208 0,1.1866417 0.5191557,1.7057974 0.5191558,0.5191557 1.7799625,0.6180425 V 9.2558193 H -0.42002017 V 8.3163947 q 1.06303313,0 1.58218887,-0.5685991 0.5438774,-0.5933208 0.741651,-1.9530144 l 1.4091369,-9.1964726 q 0.049443,-0.3213821 0.074165,-0.6427642 0.024722,-0.3213821 0.024722,-0.5933209 0,-0.988868 -0.4449906,-1.4585803 -0.4202689,-0.494434 -1.4585803,-0.5685991 v -0.9394246 z" />
      <path
         id="path864"
         style="font-style:normal;font-variant:normal;font-weight:normal;font-stretch:normal;font-family:'Plantin MT Pro';-inkscape-font-specification:'Plantin MT Pro';fill:#ffffff;stroke-width:0.618046"
         d="M 32.20683,1.517927 Q 32.0585,0.18295518 31.415736,-0.50925244 30.797693,-1.2261818 29.73466,-1.2261818 q -1.038311,0 -1.75524,0.71692936 -0.71693,0.69220762 -0.914703,2.02717944 z m -1.928292,-3.6588117 q 1.038311,0 1.854127,0.3955472 0.840538,0.3955472 1.409137,1.03831145 0.593321,0.64276422 0.914703,1.45858034 0.321382,0.81581611 0.346104,1.65635391 h -7.886223 v 0.3213821 q 0,1.0877549 0.321383,1.9777361 0.346103,0.8899812 0.914702,1.5327454 0.5686,0.6180426 1.359694,0.9641464 0.791094,0.3461038 1.705797,0.3461038 1.730519,0 3.065491,-1.1866417 l 0.519156,0.4697124 q -0.791094,1.3102501 -1.977736,2.0024577 -1.186642,0.6922076 -2.6205,0.6922076 -1.087755,0 -2.02718,-0.4202689 Q 27.237769,8.6872202 26.545561,7.9455692 25.853353,7.1791965 25.457806,6.140885 25.062259,5.0778519 25.062259,3.8170452 q 0,-1.2608068 0.395547,-2.3485616 0.395547,-1.08775482 1.087755,-1.87884924 0.692208,-0.81581616 1.656354,-1.26080676 0.964146,-0.4697123 2.076623,-0.4697123 z" />
      <path
         id="path866"
         style="font-style:normal;font-variant:normal;font-weight:normal;font-stretch:normal;font-family:'Plantin MT Pro';-inkscape-font-specification:'Plantin MT Pro';fill:#ffffff;stroke-width:0.618046"
         d="m 39.913822,-2.1408847 v 2.10134457 h 0.04944 q 0.692207,-0.93942463 1.75524,-1.50802377 1.087755,-0.5933208 2.200232,-0.5933208 1.779962,0 2.694665,0.9394246 0.939425,0.93942466 0.939425,2.8182739 v 4.8454533 q 0,0.9394247 0.395547,1.3844153 0.420269,0.4202689 1.359693,0.5191557 V 9.2558193 H 43.473747 V 8.3658381 q 1.112477,0 1.557467,-0.5191557 0.444991,-0.5438774 0.444991,-1.4338587 V 2.1359695 q 0,-1.1371982 -0.593321,-1.87884922 -0.568599,-0.74165102 -1.730519,-0.74165102 -0.86526,0 -1.656354,0.39554721 -0.791094,0.39554721 -1.582189,1.06303313 V 6.388102 q 0,0.8899813 0.420269,1.4338587 0.420269,0.5438774 1.582189,0.5438774 V 9.2558193 H 36.007793 V 8.3658381 q 0.988868,-0.049443 1.409137,-0.5191557 0.420269,-0.494434 0.420269,-1.3102502 V 0.52905898 L 36.180845,-0.41036564 V -0.97896476 L 39.29578,-2.1408847 Z" />
      <path
         id="path868"
         style="font-style:normal;font-variant:normal;font-weight:normal;font-stretch:normal;font-family:'Plantin MT Pro';-inkscape-font-specification:'Plantin MT Pro';fill:#ffffff;stroke-width:0.618046"
         d="m 53.715095,-2.1408847 h 0.618043 v 8.6031518 q 0,0.8899813 0.395547,1.3844153 0.420269,0.494434 1.137198,0.5191557 v 0.8899812 h -5.38933 V 8.3658381 q 0.865259,-0.024722 1.31025,-0.5191557 0.469712,-0.494434 0.469712,-1.2113634 V 0.57850239 L 50.377666,-0.36092224 V -0.92952135 Z M 53.19594,-7.9257626 q 0.543877,0 0.939424,0.3955472 0.395547,0.3708255 0.395547,0.9394246 0,0.5438774 -0.395547,0.9394246 -0.370825,0.3955472 -0.939424,0.3955472 -0.568599,0 -0.964147,-0.3708255 -0.370825,-0.3955472 -0.370825,-0.9641463 0,-0.5685991 0.395547,-0.9394246 0.395547,-0.3955472 0.939425,-0.3955472 z" />
      <path
         id="path870"
         style="font-style:normal;font-variant:normal;font-weight:normal;font-stretch:normal;font-family:'Plantin MT Pro';-inkscape-font-specification:'Plantin MT Pro';fill:#ffffff;stroke-width:0.618046"
         d="m 60.772755,-2.1408847 v 2.10134457 h 0.04944 q 0.692208,-0.93942463 1.755241,-1.50802377 1.087755,-0.5933208 2.200231,-0.5933208 1.779963,0 2.694666,0.9394246 0.939424,0.93942466 0.939424,2.8182739 v 4.8454533 q 0,0.9394247 0.395547,1.3844153 0.420269,0.4202689 1.359694,0.5191557 V 9.2558193 H 64.33268 V 8.3658381 q 1.112476,0 1.557467,-0.5191557 0.44499,-0.5438774 0.44499,-1.4338587 V 2.1359695 q 0,-1.1371982 -0.593321,-1.87884922 -0.568599,-0.74165102 -1.730519,-0.74165102 -0.865259,0 -1.656354,0.39554721 -0.791094,0.39554721 -1.582188,1.06303313 V 6.388102 q 0,0.8899813 0.420269,1.4338587 0.420268,0.5438774 1.582188,0.5438774 V 9.2558193 H 56.866726 V 8.3658381 q 0.988868,-0.049443 1.409137,-0.5191557 0.420269,-0.494434 0.420269,-1.3102502 V 0.52905898 l -1.656354,-0.93942462 v -0.56859912 l 3.114934,-1.16191994 z" />
      <path
         id="path872"
         style="font-style:normal;font-variant:normal;font-weight:normal;font-stretch:normal;font-family:'Plantin MT Pro';-inkscape-font-specification:'Plantin MT Pro';fill:#ffffff;stroke-width:0.618046"
         d="m 74.005436,2.6551252 q 0,1.1124766 0.296661,2.2991182 0.29666,1.1619199 0.791094,1.9777361 0.494434,0.7910944 1.087755,1.236085 0.593321,0.4449906 1.409137,0.4449906 1.433859,0 2.274396,-0.9394246 0.840538,-0.9394246 0.840538,-2.5710569 0,-0.9394246 -0.197773,-1.9530143 -0.173052,-1.0383115 -0.519156,-1.903571 -0.444991,-1.11247653 -1.186642,-1.77996244 -0.716929,-0.69220766 -1.75524,-0.69220766 -3.04077,0 -3.04077,3.881307 z m 3.1891,-4.7960099 q 1.260806,0 2.299118,0.4202689 1.063033,0.4202689 1.804684,1.18664166 0.766373,0.76637272 1.186642,1.82940584 0.44499,1.0383114 0.44499,2.2991182 0,1.2608067 -0.44499,2.3485615 -0.420269,1.0877549 -1.16192,1.903571 -0.741651,0.7910944 -1.755241,1.236085 -1.01359,0.4449906 -2.200231,0.4449906 -1.16192,0 -2.200232,-0.4697123 Q 74.129045,8.5883334 73.33795,7.797239 72.571578,6.9814229 72.101865,5.9183897 q -0.44499,-1.0877548 -0.44499,-2.2991181 0,-1.2113634 0.420269,-2.2496748 0.44499,-1.06303312 1.186641,-1.82940584 0.741651,-0.79109446 1.755241,-1.23608506 1.01359,-0.4449906 2.17551,-0.4449906 z" />
      <path
         id="path874"
         style="font-style:normal;font-variant:normal;font-weight:normal;font-stretch:normal;font-family:'Plantin MT Pro';-inkscape-font-specification:'Plantin MT Pro';fill:#ffffff;stroke-width:0.618046"
         d="m 88.639911,-2.1408847 q 1.977736,0 3.337429,1.0630331 V 1.5920921 H 91.210968 Q 90.939029,0.10879007 90.320986,-0.55869584 89.727665,-1.2261818 88.689354,-1.2261818 q -0.865259,0 -1.359693,0.44499065 -0.494434,0.42026891 -0.494434,1.21136333 0,0.69220762 0.618042,1.18664162 0.642764,0.494434 1.606911,0.9147029 1.285528,0.5685992 2.076622,0.9888681 0.791095,0.4202689 1.16192,0.988868 0.222496,0.3461038 0.346104,0.7663727 0.14833,0.4202689 0.14833,0.988868 0,1.4833021 -1.013589,2.3732833 -0.988868,0.8899812 -2.768831,0.8899812 -0.865259,0 -1.903571,-0.2224953 -1.01359,-0.1977736 -1.730519,-0.5685991 V 5.6217293 h 0.815816 q 0.197774,1.4585804 0.840538,2.2249531 0.667486,0.7663727 1.804684,0.7663727 1.01359,0 1.631633,-0.494434 0.618042,-0.5191557 0.618042,-1.2608067 0,-0.6427643 -0.494434,-1.0630332 Q 90.098491,5.3497906 88.837684,4.8059132 87.675764,4.3362009 86.934113,3.8912103 86.217184,3.421498 85.772193,2.9517857 85.351924,2.4820733 85.178873,1.9629176 85.030542,1.4437619 85.030542,0.85044109 q 0,-0.59332081 0.247217,-1.13719823 0.247217,-0.54387741 0.71693,-0.93942466 0.469712,-0.4202689 1.137198,-0.6674859 0.667486,-0.247217 1.508024,-0.247217 z" />
    </g>
    <g
       style="font-style:normal;font-weight:normal;font-size:24.72169999999999845px;line-height:1.25;font-family:sans-serif;fill:#ffffff;fill-opacity:1;stroke:none;stroke-width:0.618045"
       id="text1553"
       aria-label="Meninas">
      <path
         id="path847"
         style="font-style:normal;font-variant:normal;font-weight:normal;font-stretch:normal;font-family:'Plantin MT Pro';-inkscape-font-specification:'Plantin MT Pro';fill:#ffffff;stroke-width:0.618045"
         d="m -8.6221809,-34.053641 q 0.074165,1.186641 0.5933208,2.892439 0.5438774,1.705797 1.7799624,4.153245 1.0630332,2.101345 1.8046842,3.658812 0.741651,1.557467 1.0383114,2.571057 0.5933208,-1.186642 1.2360851,-2.47217 0.6674859,-1.31025 1.26080669,-2.571057 0.61804251,-1.260807 1.13719823,-2.422727 0.54387741,-1.16192 0.91470288,-2.076622 0.3461039,-0.815817 0.4697124,-1.483302 0.1483302,-0.692208 0.1483302,-1.186642 0,-0.222495 -0.024722,-0.494434 -0.024722,-0.271939 -0.074165,-0.568599 h 5.0185052 v 0.939424 q -0.988868,0.07416 -1.4585803,0.494434 -0.4697124,0.420269 -0.4697124,1.310251 0,0.271938 0.024722,0.59332 0.024722,0.321382 0.074165,0.618043 l 1.2360851,9.493133 q 0.1730519,1.285528 0.7663727,1.829406 0.6180425,0.519155 1.8046841,0.642764 v 0.939425 H 1.1923342 v -0.939425 q 1.1371983,0 1.656354,-0.543877 0.5191557,-0.5686 0.5191557,-1.508024 0,-0.494434 -0.3213821,-3.090213 -0.3213821,-2.6205 -0.8405378,-6.996241 h -0.049443 q -0.9394247,2.818274 -3.2138211,7.169293 -1.1371982,2.17551 -1.7552408,3.609368 -0.5933208,1.433859 -0.7663727,2.299119 h -1.1619199 q -0.1483302,-0.939425 -0.8158161,-2.47217 -0.6427643,-1.557468 -1.8541276,-3.955473 -1.236085,-2.422726 -2.0271794,-4.128524 -0.766373,-1.730519 -1.112477,-2.91716 h -0.04944 l -1.260807,8.776203 q -0.07417,0.444991 -0.09889,0.840538 -0.02472,0.370826 -0.02472,0.593321 0,1.186642 0.519156,1.705797 0.519155,0.519156 1.7799619,0.618043 v 0.939425 h -5.7848779 v -0.939425 q 1.063033,0 1.582189,-0.568599 0.543877,-0.593321 0.741651,-1.953014 l 1.409137,-9.196473 q 0.04944,-0.321382 0.07416,-0.642764 0.02472,-0.321382 0.02472,-0.593321 0,-0.988868 -0.444991,-1.458581 -0.420269,-0.494434 -1.45858,-0.568599 v -0.939424 z" />
      <path
         id="path849"
         style="font-style:normal;font-variant:normal;font-weight:normal;font-stretch:normal;font-family:'Plantin MT Pro';-inkscape-font-specification:'Plantin MT Pro';fill:#ffffff;stroke-width:0.618045"
         d="m 17.156759,-24.931334 q -0.148331,-1.334972 -0.791095,-2.027179 -0.618042,-0.716929 -1.681076,-0.716929 -1.038311,0 -1.75524,0.716929 -0.71693,0.692207 -0.914703,2.027179 z m -1.928293,-3.658811 q 1.038311,0 1.854127,0.395547 0.840538,0.395547 1.409137,1.038311 0.593321,0.642764 0.914703,1.458581 0.321382,0.815816 0.346104,1.656354 h -7.886222 v 0.321382 q 0,1.087754 0.321382,1.977736 0.346103,0.889981 0.914703,1.532745 0.568599,0.618043 1.359693,0.964146 0.791095,0.346104 1.705797,0.346104 1.73052,0 3.065491,-1.186641 l 0.519156,0.469712 q -0.791094,1.31025 -1.977736,2.002458 -1.186642,0.692207 -2.6205,0.692207 -1.087755,0 -2.02718,-0.420269 -0.939424,-0.420269 -1.631632,-1.16192 -0.692208,-0.766372 -1.087755,-1.804684 -0.395547,-1.063033 -0.395547,-2.32384 0,-1.260806 0.395547,-2.348561 0.395547,-1.087755 1.087755,-1.878849 0.692208,-0.815816 1.656354,-1.260807 0.964146,-0.469712 2.076623,-0.469712 z" />
      <path
         id="path851"
         style="font-style:normal;font-variant:normal;font-weight:normal;font-stretch:normal;font-family:'Plantin MT Pro';-inkscape-font-specification:'Plantin MT Pro';fill:#ffffff;stroke-width:0.618045"
         d="m 24.86375,-28.590145 v 2.101344 h 0.04944 q 0.692207,-0.939424 1.75524,-1.508024 1.087755,-0.59332 2.200232,-0.59332 1.779962,0 2.694665,0.939424 0.939425,0.939425 0.939425,2.818274 v 4.845453 q 0,0.939425 0.395547,1.384416 0.420269,0.420269 1.359694,0.519155 v 0.889982 h -5.834322 v -0.889982 q 1.112477,0 1.557467,-0.519155 0.444991,-0.543878 0.444991,-1.433859 v -4.276854 q 0,-1.137198 -0.593321,-1.878849 -0.568599,-0.741651 -1.730519,-0.741651 -0.865259,0 -1.656354,0.395547 -0.791094,0.395547 -1.582189,1.063033 v 5.414052 q 0,0.889982 0.420269,1.433859 0.420269,0.543877 1.582189,0.543877 v 0.889982 h -5.908486 v -0.889982 q 0.988868,-0.04944 1.409137,-0.519155 0.420268,-0.494434 0.420268,-1.31025 v -6.007374 l -1.656353,-0.939424 v -0.568599 l 3.114934,-1.16192 z" />
      <path
         id="path853"
         style="font-style:normal;font-variant:normal;font-weight:normal;font-stretch:normal;font-family:'Plantin MT Pro';-inkscape-font-specification:'Plantin MT Pro';fill:#ffffff;stroke-width:0.618045"
         d="m 38.665024,-28.590145 h 0.618042 v 8.603151 q 0,0.889982 0.395547,1.384416 0.420269,0.494434 1.137198,0.519155 v 0.889982 h -5.38933 v -0.889982 q 0.865259,-0.02472 1.31025,-0.519155 0.469712,-0.494434 0.469712,-1.211364 v -6.056816 l -1.878849,-0.939425 v -0.568599 z m -0.519156,-5.784878 q 0.543877,0 0.939424,0.395547 0.395548,0.370825 0.395548,0.939424 0,0.543878 -0.395548,0.939425 -0.370825,0.395547 -0.939424,0.395547 -0.568599,0 -0.964147,-0.370825 -0.370825,-0.395547 -0.370825,-0.964147 0,-0.568599 0.395547,-0.939424 0.395547,-0.395547 0.939425,-0.395547 z" />
      <path
         id="path855"
         style="font-style:normal;font-variant:normal;font-weight:normal;font-stretch:normal;font-family:'Plantin MT Pro';-inkscape-font-specification:'Plantin MT Pro';fill:#ffffff;stroke-width:0.618045"
         d="m 45.722683,-28.590145 v 2.101344 h 0.04944 q 0.692208,-0.939424 1.755241,-1.508024 1.087755,-0.59332 2.200231,-0.59332 1.779963,0 2.694666,0.939424 0.939424,0.939425 0.939424,2.818274 v 4.845453 q 0,0.939425 0.395548,1.384416 0.420268,0.420269 1.359693,0.519155 v 0.889982 h -5.834321 v -0.889982 q 1.112476,0 1.557467,-0.519155 0.44499,-0.543878 0.44499,-1.433859 v -4.276854 q 0,-1.137198 -0.59332,-1.878849 -0.568599,-0.741651 -1.730519,-0.741651 -0.86526,0 -1.656354,0.395547 -0.791095,0.395547 -1.582189,1.063033 v 5.414052 q 0,0.889982 0.420269,1.433859 0.420269,0.543877 1.582189,0.543877 v 0.889982 h -5.908487 v -0.889982 q 0.988868,-0.04944 1.409137,-0.519155 0.420269,-0.494434 0.420269,-1.31025 v -6.007374 l -1.656354,-0.939424 v -0.568599 l 3.114934,-1.16192 z" />
      <path
         id="path857"
         style="font-style:normal;font-variant:normal;font-weight:normal;font-stretch:normal;font-family:'Plantin MT Pro';-inkscape-font-specification:'Plantin MT Pro';fill:#ffffff;stroke-width:0.618045"
         d="m 58.856478,-20.209489 q 0,0.716929 0.469712,1.186642 0.469712,0.44499 1.260807,0.44499 1.285528,0 2.496892,-1.285528 v -3.090213 l -1.532746,0.568599 q -1.483302,0.5686 -2.101344,1.038312 -0.593321,0.469712 -0.593321,1.137198 z m 2.694665,-8.380656 q 3.609368,0 3.609368,2.595778 v 6.427642 q 0,0.395548 0.148331,0.642765 0.173052,0.222495 0.469712,0.222495 0.222495,0 0.395547,-0.07417 0.173052,-0.07417 0.370826,-0.197774 l 0.222495,0.889981 q -0.543877,0.618043 -1.01359,0.889982 -0.469712,0.271938 -0.988868,0.271938 -0.716929,0 -1.16192,-0.469712 -0.420269,-0.469712 -0.519155,-1.31025 -1.063034,0.964146 -1.903571,1.384415 -0.840538,0.395547 -1.755241,0.395547 -1.186642,0 -1.977736,-0.716929 -0.791095,-0.741651 -0.791095,-1.928293 0,-0.642764 0.247217,-1.137198 0.247217,-0.494434 0.71693,-0.865259 0.469712,-0.395548 1.112476,-0.71693 0.642764,-0.321382 1.433859,-0.593321 l 2.917161,-1.013589 v -1.730519 q 0,-0.444991 -0.197774,-0.791095 -0.197774,-0.370825 -0.519156,-0.593321 -0.321382,-0.247217 -0.741651,-0.370825 -0.395547,-0.14833 -0.815816,-0.14833 -0.370825,0 -0.716929,0.09889 -0.321382,0.09889 -0.593321,0.271938 -0.271939,0.173052 -0.444991,0.370826 -0.14833,0.197773 -0.14833,0.420269 0,0.14833 0.07417,0.346103 0.09889,0.173052 0.197774,0.370826 0.123608,0.173052 0.222495,0.370825 0.09889,0.173052 0.09889,0.296661 0,0.123608 -0.07417,0.197774 -0.04944,0.04944 -0.247217,0.14833 l -1.087755,0.519155 q -0.07417,0.04944 -0.173052,0.09889 -0.07417,0.02472 -0.123608,0.02472 -0.04944,0 -0.197774,-0.173052 -0.123609,-0.197774 -0.271939,-0.469712 -0.123608,-0.271939 -0.222495,-0.568599 -0.09889,-0.296661 -0.09889,-0.519156 0,-0.444991 0.247217,-0.939425 0.271939,-0.494434 0.815816,-0.914703 0.568599,-0.44499 1.433859,-0.716929 0.865259,-0.29666 2.051901,-0.29666 z" />
      <path
         id="path859"
         style="font-style:normal;font-variant:normal;font-weight:normal;font-stretch:normal;font-family:'Plantin MT Pro';-inkscape-font-specification:'Plantin MT Pro';fill:#ffffff;stroke-width:0.618045"
         d="m 71.996447,-28.590145 q 1.977736,0 3.33743,1.063033 v 2.669943 h -0.766373 q -0.271938,-1.483302 -0.889981,-2.150788 -0.593321,-0.667485 -1.631632,-0.667485 -0.86526,0 -1.359694,0.44499 -0.494434,0.420269 -0.494434,1.211363 0,0.692208 0.618043,1.186642 0.642764,0.494434 1.60691,0.914703 1.285529,0.568599 2.076623,0.988868 0.791095,0.420269 1.16192,0.988868 0.222495,0.346104 0.346104,0.766373 0.14833,0.420269 0.14833,0.988868 0,1.483302 -1.01359,2.373283 -0.988868,0.889981 -2.76883,0.889981 -0.86526,0 -1.903571,-0.222495 -1.01359,-0.197774 -1.730519,-0.568599 v -3.114934 h 0.815816 q 0.197774,1.45858 0.840538,2.224953 0.667486,0.766372 1.804684,0.766372 1.01359,0 1.631632,-0.494434 0.618043,-0.519155 0.618043,-1.260806 0,-0.642765 -0.494434,-1.063033 -0.494434,-0.444991 -1.755241,-0.988869 -1.16192,-0.469712 -1.903571,-0.914702 -0.716929,-0.469713 -1.16192,-0.939425 -0.420269,-0.469712 -0.593321,-0.988868 -0.14833,-0.519156 -0.14833,-1.112477 0,-0.59332 0.247217,-1.137198 0.247217,-0.543877 0.716929,-0.939424 0.469713,-0.420269 1.137199,-0.667486 0.667486,-0.247217 1.508023,-0.247217 z" />
    </g>
    <g
       style="font-style:normal;font-weight:normal;font-size:24.72169999999999845px;line-height:1.25;font-family:sans-serif;fill:#ffffff;fill-opacity:1;stroke:none;stroke-width:0.618046"
       id="text1553-4-6"
       aria-label="e">
      <path
         id="path877"
         style="font-style:normal;font-variant:normal;font-weight:normal;font-stretch:normal;font-family:'Plantin BQ';-inkscape-font-specification:'Plantin BQ';fill:#ffffff;stroke-width:0.618046"
         d="m -7.2245719,6.2101126 c -0.741651,0.8899812 -1.8046842,2.1013445 -3.0654911,2.1013445 -0.840538,0 -1.45858,-0.5933208 -1.705797,-1.4091369 -0.02472,-0.1483302 -0.07416,-0.3461038 -0.07416,-0.6922076 0,-0.4449906 0.07416,-0.8158161 0.14833,-1.2608068 1.9530143,-0.4697123 4.3015759,-1.0135897 5.6365477,-2.719387 0.6427642,-0.8405378 0.7663727,-1.60691057 0.7663727,-2.05190118 0,-1.03831143 -0.6674859,-1.50802372 -1.0135897,-1.68107562 -0.4202689,-0.1977736 -0.7910944,-0.1977736 -0.9641463,-0.1977736 -1.2360851,0 -2.3238399,0.91470289 -2.5957784,1.1371982 -2.200232,1.8046841 -3.213821,4.2521325 -3.510482,5.1421137 -0.29666,0.914703 -0.346103,1.5327455 -0.346103,1.9530144 0,1.1371982 0.494434,2.3238399 1.45858,2.892439 0.494434,0.2719387 1.063033,0.2966604 1.260807,0.2966604 1.8541271,0 3.1396556,-1.3844153 3.436316,-1.7057974 0.4449906,-0.4697123 0.7169293,-0.7910944 1.4585803,-1.7799624 z M -11.798087,4.2818199 c 0.148331,-0.6674859 0.519156,-2.4227266 1.9035714,-3.93075038 0.1977736,-0.1977736 0.7910944,-0.88998122 1.7305191,-0.88998122 0.7910944,0 1.2855284,0.44499061 1.2855284,1.31025014 0,0.74165106 -0.4449906,1.33497186 -0.9641463,1.77996246 -0.8405379,0.7169293 -1.7799625,1.1124765 -3.9554726,1.730519 z" />
    </g>
    <g
       style="font-style:normal;font-weight:normal;font-size:6.29797000000000029px;line-height:1.25;font-family:sans-serif;fill:#ffffff;fill-opacity:1;stroke:none;stroke-width:0.15745"
       id="text1553-4-3"
       aria-label="OLÃ,">
      <path
         id="path880"
         style="font-style:normal;font-variant:normal;font-weight:normal;font-stretch:normal;font-family:'Zurich Cn BT';-inkscape-font-specification:'Zurich Cn BT';fill:#ffffff;stroke-width:0.15745"
         d="m -13.245678,-46.630715 q 0,0.722668 -0.05535,1.09784 -0.05535,0.372097 -0.17836,0.590435 -0.172211,0.295217 -0.482804,0.452051 -0.307518,0.153759 -0.725742,0.153759 -0.341345,0 -0.618112,-0.104556 -0.273691,-0.107631 -0.452051,-0.307518 -0.206037,-0.227563 -0.289067,-0.611961 -0.08303,-0.387473 -0.08303,-1.319252 0,-0.790322 0.05228,-1.156268 0.05228,-0.365947 0.17836,-0.584285 0.16606,-0.292142 0.473578,-0.442826 0.310594,-0.153759 0.738044,-0.153759 0.341345,0 0.615036,0.104556 0.276766,0.104557 0.455126,0.304443 0.202962,0.233714 0.285992,0.627337 0.0861,0.390548 0.0861,1.350004 z m -0.611961,-0.0492 q 0,-1.150118 -0.18451,-1.488388 -0.181436,-0.33827 -0.651939,-0.33827 -0.206037,0 -0.365946,0.07688 -0.156834,0.0738 -0.252165,0.218338 -0.113782,0.17221 -0.162985,0.455126 -0.04613,0.279842 -0.04613,1.076314 0,0.679614 0.02768,0.953306 0.03075,0.273691 0.09841,0.430525 0.101481,0.227563 0.273691,0.33827 0.17221,0.110706 0.42745,0.110706 0.470503,0 0.651939,-0.341345 0.18451,-0.341345 0.18451,-1.491462 z" />
      <path
         id="path882"
         style="font-style:normal;font-variant:normal;font-weight:normal;font-stretch:normal;font-family:'Zurich Cn BT';-inkscape-font-specification:'Zurich Cn BT';fill:#ffffff;stroke-width:0.15745"
         d="m -12.476883,-44.413509 v -4.535892 h 0.59351 v 4.013111 h 1.546816 v 0.522781 z" />
      <path
         id="path884"
         style="font-style:normal;font-variant:normal;font-weight:normal;font-stretch:normal;font-family:'Zurich Cn BT';-inkscape-font-specification:'Zurich Cn BT';fill:#ffffff;stroke-width:0.15745"
         d="m -9.0142295,-46.049505 h 1.2977262 l -0.6365624,-2.192604 z m 1.7590033,1.635996 -0.3044429,-1.100915 h -1.6052442 l -0.3136685,1.100915 h -0.6488632 l 1.4238087,-4.535892 h 0.7165171 l 1.3869065,4.535892 z m -1.549891,-4.947966 0.6273368,-1.070163 h 0.6181113 l -0.8764264,1.070163 z" />
      <path
         id="path886"
         style="font-style:normal;font-variant:normal;font-weight:normal;font-stretch:normal;font-family:'Zurich Cn BT';-inkscape-font-specification:'Zurich Cn BT';fill:#ffffff;stroke-width:0.15745"
         d="m -6.3049955,-43.675466 0.3198187,-1.436109 h 0.5996603 l -0.4920289,1.436109 z" />
    </g>
  </g>
</svg>
